<svg width="358" height="344" viewBox="0 0 358 344" fill="none" xmlns="http://www.w3.org/2000/svg">
<path fill-rule="evenodd" clip-rule="evenodd" d="M12.0125 120.486C12.8208 71.4787 52.8 32 102 32C110.67 32 119.054 33.226 126.988 35.5141C126.179 84.5213 86.2 124 37 124C28.3298 124 19.946 122.774 12.0125 120.486Z" fill="#F2C798"/>
<path fill-rule="evenodd" clip-rule="evenodd" d="M87.4562 108.537C111.32 92.3517 127 65.007 127 34C127 22.1461 124.708 10.8274 120.544 0.462891C96.6802 16.6483 81 43.993 81 75C81 86.8539 83.2917 98.1726 87.4562 108.537Z" fill="#F2C798"/>
<path fill-rule="evenodd" clip-rule="evenodd" d="M96.7011 113.029C54.119 129.881 24 171.423 24 220C24 253.688 38.4857 283.993 61.5681 305.026C62.9646 298.658 67.4165 291.01 74.2132 284.213C81.6661 276.76 90.143 272.127 96.8331 271.25C87.0217 250.622 81 222.718 81 192C81 161.42 86.9678 133.628 96.7011 113.029Z" fill="#F2C798"/>
<path fill-rule="evenodd" clip-rule="evenodd" d="M271.015 156.766L343.974 126.927C320.053 87.9771 277.06 62 228 62C152.889 62 92 122.889 92 198C92 221.099 97.7589 242.854 107.919 261.906C102.193 249.456 99 235.601 99 221C99 166.876 142.876 123 197 123C226.551 123 253.047 136.08 271.015 156.766Z" fill="#F2C798"/>
<path fill-rule="evenodd" clip-rule="evenodd" d="M259.954 275C314.078 275 357.954 231.124 357.954 177C357.954 122.876 314.078 79 259.954 79C225.321 79 194.885 96.9647 177.454 124.084C188.246 121.199 200.838 120.823 213.78 123.574C246.45 130.518 268.978 154.759 264.098 177.718C259.218 200.678 228.778 213.66 196.108 206.716C183.101 203.951 171.702 198.445 163 191.37C169.952 238.681 210.712 275 259.954 275Z" fill="#F2C798"/>
<path fill-rule="evenodd" clip-rule="evenodd" d="M70.5941 336.271C91.3362 332.706 107 316.479 107 297C107 289.941 104.943 283.309 101.332 277.552C90.8381 279.565 80.701 286.263 74.0293 296.736C65.8618 309.556 65.0159 324.693 70.5941 336.271Z" fill="#F2C798"/>
<path fill-rule="evenodd" clip-rule="evenodd" d="M0.46347 337.727C7.72078 327.599 19.5897 321 33 321C46.4103 321 58.2792 327.599 65.5365 337.727C58.2792 341.525 46.4103 344 33 344C19.5897 344 7.72078 341.525 0.46347 337.727Z" fill="#F2C798"/>
</svg>
